<?xml version="1.0" encoding="UTF-8"?>
<svg id="Layer_2" data-name="Layer 2" xmlns="http://www.w3.org/2000/svg" viewBox="0 0 73.8 57.58">
  <defs>
    <style>
      .cls-1 {
        fill: none;
        stroke: #fff;
        stroke-miterlimit: 10;
      }
    </style>
  </defs>
  <rect width="73.8" height="57.58"/>
  <g id="THE_HOP" data-name="THE HOP">
    <g>
      <polyline class="cls-1" points="13.84 52.6 13.84 38.14 6.71 38.14 6.71 5.36 37.76 5.36"/>
      <path class="cls-1" d="M13.8,5.36c-.83.52-2.78,1.92-3.89,4.5-.73,1.7-.79,3.22-.76,4.13v19.93h28.6"/>
      <path class="cls-1" d="M18.45,33.91V13.98c.03-.91-.03-2.44-.76-4.13-1.11-2.58-3.06-3.98-3.89-4.5"/>
      <path class="cls-1" d="M18.31,12.15c0-2.41-2.01-4.36-4.51-4.36s-4.51,1.95-4.51,4.36"/>
      <path class="cls-1" d="M20.59,33.91V13.99c-.03-.91.03-2.44.76-4.13,1.11-2.58,3.06-3.98,3.89-4.5"/>
      <path class="cls-1" d="M29.89,33.91V13.98c.03-.91-.03-2.44-.76-4.13-1.11-2.58-3.06-3.98-3.89-4.5"/>
      <path class="cls-1" d="M29.75,12.15c0-2.41-2.01-4.36-4.51-4.36s-4.51,1.95-4.51,4.36"/>
      <path class="cls-1" d="M31.94,33.91V13.99c-.03-.91.03-2.44.76-4.13,1.11-2.58,3.06-3.98,3.89-4.5"/>
      <path class="cls-1" d="M37.76,7.97c-2.75-.64-5.68,1.32-5.68,4.19"/>
      <rect class="cls-1" x="33.65" y="37.93" width="6.36" height="14.67"/>
      <polyline class="cls-1" points="59.58 52.6 59.58 38.14 66.71 38.14 66.71 5.36 35.66 5.36"/>
      <path class="cls-1" d="M59.61,5.36c.83.52,2.78,1.92,3.89,4.5.73,1.7.79,3.22.76,4.13v19.93h-28.6"/>
      <path class="cls-1" d="M54.96,33.91V13.98c-.03-.91.03-2.44.76-4.13,1.11-2.58,3.06-3.98,3.89-4.5"/>
      <path class="cls-1" d="M55.1,12.15c0-2.41,2.01-4.36,4.51-4.36s4.51,1.95,4.51,4.36"/>
      <path class="cls-1" d="M52.82,33.91V13.98c.03-.91-.03-2.44-.76-4.13-1.11-2.58-3.06-3.98-3.89-4.5"/>
      <path class="cls-1" d="M43.53,33.91V13.98c-.03-.91.03-2.44.76-4.13,1.11-2.58,3.06-3.98,3.89-4.5"/>
      <path class="cls-1" d="M43.67,12.15c0-2.41,2.01-4.36,4.51-4.36s4.51,1.95,4.51,4.36"/>
      <path class="cls-1" d="M41.47,33.91V13.98c.03-.91-.03-2.44-.76-4.13-1.11-2.58-3.06-3.98-3.89-4.5"/>
      <path class="cls-1" d="M35.66,7.97c2.75-.64,5.68,1.32,5.68,4.19"/>
      <rect class="cls-1" x="50.5" y="37.93" width="6.36" height="14.67"/>
      <rect class="cls-1" x="42.08" y="37.93" width="6.36" height="14.67"/>
      <rect class="cls-1" x="16.13" y="37.93" width="6.36" height="14.67"/>
      <rect class="cls-1" x="24.89" y="37.93" width="6.36" height="14.67"/>
    </g>
  </g>
</svg>